# xmcd CD database file
#
# Track frame offsets:
#	150
#	18917
#	40150
#	60365
#	80252
#	98892
#	118037
#	141955
#	165647
#	185487
#	211595
#	231167
#
# Disc length: 3367 seconds
#
# Revision: 0
# Processed by: cddbd v1.5.1PL2 Copyright (c) Steve Scherf et al.
# Submitted via: CDex 1.51
#
DISCID=930d250c
DTITLE=松山千春 - 起承転結VI
DYEAR=1994
DGENRE=JPop
TTITLE0=夏の陽
TTITLE1=ララバイ
TTITLE2=男達の唄
TTITLE3=踊り子
TTITLE4=燃える涙
TTITLE5=愛の炎
TTITLE6=純−愛する者たちへ−
TTITLE7=今…
TTITLE8=INTENTIONAL
TTITLE9=陽だまりの中
TTITLE10=東京
TTITLE11=俺の人生
EXTD=YEAR: 1994
EXTT0=
EXTT1=
EXTT2=
EXTT3=
EXTT4=
EXTT5=
EXTT6=
EXTT7=
EXTT8=
EXTT9=
EXTT10=
EXTT11=
PLAYORDER=
